<svg width="1200" height="840" viewBox="0 0 1200 840" fill="none" xmlns="http://www.w3.org/2000/svg">
  <rect width="1200" height="840" rx="32" fill="#07101D"/>
  <rect x="24" y="24" width="1152" height="792" rx="28" fill="url(#paint0_linear)" stroke="#1A314E"/>
  <rect x="56" y="56" width="220" height="728" rx="22" fill="#0B1525" stroke="#1C3554"/>
  <rect x="84" y="98" width="90" height="12" rx="6" fill="#4DDCFF"/>
  <rect x="84" y="142" width="164" height="14" rx="7" fill="#17304C"/>
  <rect x="84" y="182" width="144" height="14" rx="7" fill="#17304C"/>
  <rect x="84" y="222" width="176" height="14" rx="7" fill="#17304C"/>
  <rect x="84" y="262" width="120" height="14" rx="7" fill="#17304C"/>
  <rect x="308" y="56" width="836" height="112" rx="22" fill="#0B1525" stroke="#1C3554"/>
  <rect x="336" y="88" width="220" height="18" rx="9" fill="#EAF2FF"/>
  <rect x="336" y="122" width="184" height="12" rx="6" fill="#54708F"/>
  <rect x="808" y="84" width="96" height="56" rx="18" fill="#0F2137" stroke="#1F466B"/>
  <rect x="922" y="84" width="96" height="56" rx="18" fill="#0F2137" stroke="#1F466B"/>
  <rect x="1036" y="84" width="80" height="56" rx="18" fill="url(#paint1_linear)"/>
  <rect x="308" y="196" width="252" height="176" rx="24" fill="#0B1525" stroke="#1C3554"/>
  <text x="336" y="238" fill="#95AAC7" font-family="Arial, sans-serif" font-size="24">Active Assets</text>
  <text x="336" y="304" fill="#F4F8FF" font-family="Arial, sans-serif" font-size="68" font-weight="700">1,284</text>
  <rect x="336" y="326" width="132" height="10" rx="5" fill="#34D7FF" fill-opacity="0.35"/>
  <rect x="588" y="196" width="252" height="176" rx="24" fill="#0B1525" stroke="#1C3554"/>
  <text x="616" y="238" fill="#95AAC7" font-family="Arial, sans-serif" font-size="24">Replacement Alerts</text>
  <text x="616" y="304" fill="#F4F8FF" font-family="Arial, sans-serif" font-size="68" font-weight="700">37</text>
  <rect x="616" y="326" width="108" height="10" rx="5" fill="#FF8A65" fill-opacity="0.45"/>
  <rect x="868" y="196" width="276" height="176" rx="24" fill="#0B1525" stroke="#1C3554"/>
  <text x="896" y="238" fill="#95AAC7" font-family="Arial, sans-serif" font-size="24">Recent Purchases</text>
  <rect x="896" y="278" width="220" height="16" rx="8" fill="#EAF2FF"/>
  <rect x="896" y="312" width="180" height="12" rx="6" fill="#4F6884"/>
  <rect x="896" y="346" width="192" height="12" rx="6" fill="#4F6884"/>
  <rect x="308" y="400" width="524" height="384" rx="24" fill="#0B1525" stroke="#1C3554"/>
  <text x="336" y="442" fill="#95AAC7" font-family="Arial, sans-serif" font-size="24">Asset Categories</text>
  <rect x="336" y="492" width="88" height="224" rx="18" fill="url(#paint2_linear)"/>
  <rect x="448" y="558" width="88" height="158" rx="18" fill="#1D3553"/>
  <rect x="560" y="526" width="88" height="190" rx="18" fill="#274A70"/>
  <rect x="672" y="468" width="88" height="248" rx="18" fill="#34D7FF" fill-opacity="0.4"/>
  <rect x="868" y="400" width="276" height="384" rx="24" fill="#0B1525" stroke="#1C3554"/>
  <text x="896" y="442" fill="#95AAC7" font-family="Arial, sans-serif" font-size="24">Reliability Signal</text>
  <path d="M896 694C930 622 964 606 998 560C1032 514 1066 494 1100 472" stroke="#34D7FF" stroke-width="8" stroke-linecap="round"/>
  <circle cx="896" cy="694" r="10" fill="#34D7FF"/>
  <circle cx="998" cy="560" r="10" fill="#34D7FF"/>
  <circle cx="1100" cy="472" r="10" fill="#34D7FF"/>
  <defs>
    <linearGradient id="paint0_linear" x1="600" y1="24" x2="600" y2="816" gradientUnits="userSpaceOnUse">
      <stop stop-color="#0B1423"/>
      <stop offset="1" stop-color="#09111E"/>
    </linearGradient>
    <linearGradient id="paint1_linear" x1="1036" y1="84" x2="1116" y2="140" gradientUnits="userSpaceOnUse">
      <stop stop-color="#34D7FF"/>
      <stop offset="1" stop-color="#5B8CFF"/>
    </linearGradient>
    <linearGradient id="paint2_linear" x1="380" y1="492" x2="380" y2="716" gradientUnits="userSpaceOnUse">
      <stop stop-color="#5B8CFF"/>
      <stop offset="1" stop-color="#34D7FF"/>
    </linearGradient>
  </defs>
</svg>
