<svg width="1200" height="840" viewBox="0 0 1200 840" fill="none" xmlns="http://www.w3.org/2000/svg">
  <rect width="1200" height="840" rx="32" fill="#07101D"/>
  <rect x="40" y="40" width="1120" height="760" rx="30" fill="#0A1322" stroke="#1A324F"/>
  <text x="76" y="106" fill="#F4F8FF" font-family="Arial, sans-serif" font-size="42" font-weight="700">Receipt Scanner</text>
  <text x="76" y="144" fill="#93A9C7" font-family="Arial, sans-serif" font-size="22">Upload source documents and parse them into asset-ready records.</text>
  <rect x="76" y="188" width="442" height="560" rx="26" fill="#0D1B2E" stroke="#21496C"/>
  <rect x="116" y="230" width="362" height="218" rx="22" fill="#0A1322" stroke="#244C71" stroke-dasharray="10 10"/>
  <path d="M246 332H348" stroke="#34D7FF" stroke-width="12" stroke-linecap="round"/>
  <path d="M297 281V383" stroke="#34D7FF" stroke-width="12" stroke-linecap="round"/>
  <text x="188" y="420" fill="#F4F8FF" font-family="Arial, sans-serif" font-size="28" font-weight="700">Drop receipt or invoice</text>
  <rect x="116" y="490" width="164" height="48" rx="16" fill="url(#paint0_linear)"/>
  <text x="154" y="520" fill="#04121F" font-family="Arial, sans-serif" font-size="20" font-weight="700">Scan Document</text>
  <rect x="558" y="188" width="526" height="560" rx="26" fill="#0D1B2E" stroke="#21496C"/>
  <text x="598" y="236" fill="#F4F8FF" font-family="Arial, sans-serif" font-size="28" font-weight="700">Parsed Output</text>
  <rect x="598" y="270" width="446" height="70" rx="18" fill="#0B1525"/>
  <text x="626" y="314" fill="#93A9C7" font-family="Arial, sans-serif" font-size="24">Supplier</text>
  <text x="834" y="314" fill="#F4F8FF" font-family="Arial, sans-serif" font-size="24" font-weight="700">Duracore Electrical</text>
  <rect x="598" y="362" width="446" height="70" rx="18" fill="#0B1525"/>
  <text x="626" y="406" fill="#93A9C7" font-family="Arial, sans-serif" font-size="24">Item</text>
  <text x="834" y="406" fill="#F4F8FF" font-family="Arial, sans-serif" font-size="24" font-weight="700">Industrial Drill</text>
  <rect x="598" y="454" width="446" height="70" rx="18" fill="#0B1525"/>
  <text x="626" y="498" fill="#93A9C7" font-family="Arial, sans-serif" font-size="24">Quantity</text>
  <text x="834" y="498" fill="#F4F8FF" font-family="Arial, sans-serif" font-size="24" font-weight="700">6 Units</text>
  <rect x="598" y="546" width="446" height="70" rx="18" fill="#0B1525"/>
  <text x="626" y="590" fill="#93A9C7" font-family="Arial, sans-serif" font-size="24">Suggested Category</text>
  <text x="834" y="590" fill="#F4F8FF" font-family="Arial, sans-serif" font-size="24" font-weight="700">Portable Tools</text>
  <rect x="780" y="660" width="264" height="52" rx="18" fill="url(#paint1_linear)"/>
  <text x="842" y="693" fill="#04121F" font-family="Arial, sans-serif" font-size="21" font-weight="700">Create Asset Record</text>
  <defs>
    <linearGradient id="paint0_linear" x1="116" y1="490" x2="280" y2="538" gradientUnits="userSpaceOnUse">
      <stop stop-color="#34D7FF"/>
      <stop offset="1" stop-color="#5B8CFF"/>
    </linearGradient>
    <linearGradient id="paint1_linear" x1="780" y1="660" x2="1044" y2="712" gradientUnits="userSpaceOnUse">
      <stop stop-color="#34D7FF"/>
      <stop offset="1" stop-color="#5B8CFF"/>
    </linearGradient>
  </defs>
</svg>
