<svg width="1200" height="840" viewBox="0 0 1200 840" fill="none" xmlns="http://www.w3.org/2000/svg">
  <rect width="1200" height="840" rx="32" fill="#07101D"/>
  <rect x="36" y="36" width="1128" height="768" rx="28" fill="#0B1525" stroke="#1B3654"/>
  <text x="72" y="110" fill="#F4F8FF" font-family="Arial, sans-serif" font-size="42" font-weight="700">Lifecycle Timeline</text>
  <text x="72" y="148" fill="#93A9C7" font-family="Arial, sans-serif" font-size="22">Purchased → Assigned → Installed → Failed → Replaced</text>
  <line x1="120" y1="420" x2="1080" y2="420" stroke="#21496C" stroke-width="10" stroke-linecap="round"/>
  <circle cx="160" cy="420" r="28" fill="#34D7FF"/>
  <circle cx="390" cy="420" r="28" fill="#5B8CFF"/>
  <circle cx="620" cy="420" r="28" fill="#7AA9FF"/>
  <circle cx="850" cy="420" r="28" fill="#FF8A65"/>
  <circle cx="1040" cy="420" r="28" fill="#30D18D"/>
  <rect x="92" y="494" width="136" height="104" rx="18" fill="#0E2034" stroke="#1F466B"/>
  <rect x="322" y="494" width="136" height="104" rx="18" fill="#0E2034" stroke="#1F466B"/>
  <rect x="552" y="494" width="136" height="104" rx="18" fill="#0E2034" stroke="#1F466B"/>
  <rect x="782" y="494" width="136" height="104" rx="18" fill="#0E2034" stroke="#1F466B"/>
  <rect x="972" y="494" width="136" height="104" rx="18" fill="#0E2034" stroke="#1F466B"/>
  <text x="120" y="548" fill="#F4F8FF" font-family="Arial, sans-serif" font-size="26" font-weight="700">Purchased</text>
  <text x="350" y="548" fill="#F4F8FF" font-family="Arial, sans-serif" font-size="26" font-weight="700">Assigned</text>
  <text x="580" y="548" fill="#F4F8FF" font-family="Arial, sans-serif" font-size="26" font-weight="700">Installed</text>
  <text x="821" y="548" fill="#F4F8FF" font-family="Arial, sans-serif" font-size="26" font-weight="700">Failed</text>
  <text x="1000" y="548" fill="#F4F8FF" font-family="Arial, sans-serif" font-size="26" font-weight="700">Replaced</text>
  <text x="108" y="582" fill="#93A9C7" font-family="Arial, sans-serif" font-size="18">Supplier receipt</text>
  <text x="338" y="582" fill="#93A9C7" font-family="Arial, sans-serif" font-size="18">Tech vehicle 12</text>
  <text x="568" y="582" fill="#93A9C7" font-family="Arial, sans-serif" font-size="18">Site Alpha</text>
  <text x="798" y="582" fill="#93A9C7" font-family="Arial, sans-serif" font-size="18">Overheating event</text>
  <text x="988" y="582" fill="#93A9C7" font-family="Arial, sans-serif" font-size="18">Root cause logged</text>
  <path d="M160 420C238 314 292 270 390 250C484 230 530 250 620 314C706 374 770 374 850 314C930 254 978 230 1040 230" stroke="url(#paint0_linear)" stroke-width="8" stroke-linecap="round"/>
  <defs>
    <linearGradient id="paint0_linear" x1="160" y1="420" x2="1040" y2="230" gradientUnits="userSpaceOnUse">
      <stop stop-color="#34D7FF"/>
      <stop offset="1" stop-color="#5B8CFF"/>
    </linearGradient>
  </defs>
</svg>
